<svg height="512pt" viewBox="0 -87 512 512" width="512pt" xmlns="http://www.w3.org/2000/svg"><path d="m331.308594 10.007812c-36.046875-.464843-68.507813 14.898438-90.882813 39.582032-18.175781 20.054687-41.8125 34.363281-68.226562 40.253906l-1.46875.328125c-52.765625 11.769531-96.230469 48.992187-115.980469 99.320313l-24.117188 61.472656h299.078126c67.128906 0 121.433593-54.898438 120.46875-122.246094-.925782-64.929688-53.941407-117.867188-118.871094-118.710938zm0 0" fill="#fff"/><path d="m329.710938 250.964844c67.128906 0 121.433593-54.898438 120.46875-122.246094-.476563-33.476562-14.804688-63.769531-37.46875-85.375-9.710938-2.691406-19.898438-4.199219-30.398438-4.335938-36.046875-.464843-68.511719 14.898438-90.886719 39.582032-18.175781 20.054687-41.808593 34.363281-68.226562 40.253906l-1.464844.328125c-52.765625 11.769531-96.234375 48.992187-115.980469 99.320313l-12.742187 32.472656zm0 0" fill="#b3b6c3"/><path d="m109.140625 118.382812c6.421875-4.773437 13.199219-9.085937 20.292969-12.878906.574218-30.546875-4.210938-76.101562-40.699219-55.441406-36.796875 20.839844-3.25 51.613281 20.40625 68.320312zm0 0" fill="#898998"/><path d="m51.261719 250.964844c0 11.394531-9.234375 20.628906-20.628907 20.628906-11.394531 0-20.632812-9.234375-20.632812-20.628906 0-11.394532 9.238281-20.632813 20.632812-20.632813 11.394532 0 20.628907 9.238281 20.628907 20.632813zm0 0" fill="#898998"/><path d="m129.46875 197.425781c2.640625 0 5.222656-1.066406 7.082031-2.929687 1.859375-1.859375 2.929688-4.4375 2.929688-7.070313 0-2.640625-1.070313-5.210937-2.929688-7.066406-1.859375-1.863281-4.441406-2.933594-7.082031-2.933594-2.628906 0-5.207031 1.070313-7.070312 2.933594-1.859376 1.855469-2.917969 4.429687-2.917969 7.066406 0 2.632813 1.058593 5.210938 2.917969 7.070313 1.871093 1.863281 4.441406 2.929687 7.070312 2.929687zm0 0"/><path d="m463.625 240.964844h-64.40625c8.402344-5.3125 16.261719-11.621094 23.417969-18.882813 24.714843-25.070312 38.046875-58.277343 37.542969-93.507812-.488282-34.019531-14.113282-66.097657-38.367188-90.316407-24.257812-24.222656-56.351562-37.808593-90.375-38.2460932-37.394531-.4648438-73.289062 15.1367192-98.421875 42.8632812-17.210937 18.992188-38.996094 31.855469-62.992187 37.210938l-1.46875.324218c-10.148438 2.265625-19.960938 5.421875-29.359376 9.371094-1.429687-26.8125-8.242187-44.003906-20.320312-51.199219-9.753906-5.808593-21.550781-4.875-35.066406 2.78125-13.597656 7.699219-20.789063 17.609375-21.378906 29.457031-.742188 14.875 9.484374 30.921876 30.417968 47.804688-20.671875 17.976562-37.074218 40.882812-47.402344 67.210938l-13.550781 34.53125c-.417969-.019532-.839843-.035157-1.265625-.035157-16.886718 0-30.628906 13.742188-30.628906 30.632813s13.742188 30.632812 30.628906 30.632812c13.390625 0 24.792969-8.640625 28.949219-20.632812h404.046875c15.644531 0 28.375 12.730468 28.375 28.375 0 15.644531-12.730469 28.375-28.375 28.375h-227.964844c-5.523437 0-10 4.476562-10 10 0 5.523437 4.476563 10 10 10h227.964844c26.671875 0 48.375-21.699219 48.375-48.375 0-26.675782-21.699219-48.375-48.375-48.375zm-381.222656-169.144532c.226562-4.558593 4.015625-8.949218 11.257812-13.054687 3.425782-1.9375 7.765625-3.886719 11.375-3.886719 1.328125 0 2.554688.261719 3.601563.886719 5.257812 3.128906 10.664062 16.300781 10.835937 43.808594-3.503906 2.03125-6.917968 4.195312-10.261718 6.460937-17.316407-13.207031-27.230469-25.765625-26.808594-34.214844zm-18.339844 121.324219c10.503906-26.773437 28.101562-49.550781 50.390625-66.289062.222656-.140625.4375-.289063.652344-.445313 6.042969-4.492187 12.449219-8.558594 19.046875-12.085937.0625-.035157.121094-.082031.1875-.121094 12.003906-6.390625 24.945312-11.230469 38.570312-14.269531l1.464844-.328125c28.054688-6.257813 53.457031-21.226563 73.460938-43.296875 21.28125-23.480469 51.617187-36.707032 83.34375-36.300782 59.257812.769532 108.15625 49.601563 109.003906 108.851563.425781 29.835937-10.863282 57.953125-31.789063 79.179687-20.929687 21.230469-48.875 32.925782-78.683593 32.925782h-3.101563c-17.691406 0-32.085937-14.394532-32.085937-32.085938s14.394531-32.085937 32.085937-32.085937c5.523437 0 10-4.476563 10-10 0-5.519531-4.476563-10-10-10-28.722656 0-52.085937 23.367187-52.085937 52.085937 0 12.097656 4.15625 23.234375 11.101562 32.085938h-226.046875c-1.800781-5.203125-4.96875-9.769532-9.070313-13.277344zm-33.433594 68.449219c-5.859375 0-10.628906-4.765625-10.628906-10.628906 0-5.863282 4.769531-10.628906 10.628906-10.628906 5.863282 0 10.632813 4.765624 10.632813 10.628906 0 5.863281-4.769531 10.628906-10.632813 10.628906zm0 0"/><path d="m331.191406 68.945312.335938.003907h.160156c5.449219 0 9.910156-4.375 9.996094-9.84375.085937-5.523438-4.320313-10.070313-9.84375-10.15625l-.414063-.007813c-5.496093-.078125-10.050781 4.359375-10.117187 9.882813-.0625 5.523437 4.359375 10.054687 9.882812 10.121093zm0 0"/><path d="m359.09375 76.199219c19.476562 10.535156 31.773438 30.714843 32.085938 52.660156.078124 5.476563 4.539062 9.859375 9.996093 9.859375h.144531c5.523438-.082031 9.9375-4.621094 9.859376-10.144531-.417969-29.179688-16.730469-55.992188-42.574219-69.964844-4.855469-2.625-10.925781-.820313-13.554688 4.039063-2.625 4.855468-.816406 10.925781 4.042969 13.550781zm0 0"/><path d="m192.992188 317.710938c-2.628907 0-5.210938 1.070312-7.070313 2.929687s-2.929687 4.441406-2.929687 7.070313c0 2.640624 1.070312 5.210937 2.929687 7.070312 1.859375 1.871094 4.441406 2.929688 7.070313 2.929688 2.628906 0 5.210937-1.058594 7.070312-2.929688 1.859375-1.859375 2.929688-4.429688 2.929688-7.070312 0-2.628907-1.070313-5.210938-2.929688-7.070313s-4.441406-2.929687-7.070312-2.929687zm0 0"/></svg>