<svg height="496pt" viewBox="-52 0 496 496" width="496pt" xmlns="http://www.w3.org/2000/svg"><path d="m392 120v-64h-115.6875c-10.214844-32.425781-40.558594-56-76.3125-56s-66.097656 23.574219-76.3125 56h-115.6875v64h16v120h-16v48h16v144h.207031c-3.535156 4.671875-6.183593 10.054688-7.390625 16h-16.816406v48h376v-129.472656c9.289062-3.3125 16-12.113282 16-22.527344v-8l-13.472656-48h13.472656v-48h-16v-120zm-16-48v32h-99.6875c2.390625-7.585938 3.6875-15.640625 3.6875-24 0-2.703125-.144531-5.367188-.40625-8zm-176-56c35.289062 0 64 28.710938 64 64s-28.710938 64-64 64-64-28.710938-64-64 28.710938-64 64-64zm-176 56h96.40625c-.261719 2.632812-.40625 5.296875-.40625 8 0 8.359375 1.296875 16.414062 3.6875 24h-99.6875zm173.390625 216-13.085937 45.800781-.304688 10.199219c0 10.414062 6.710938 19.214844 16 22.527344v57.679687c-6.703125-5.078125-14.960938-8.207031-24-8.207031-7.089844 0-13.894531 1.878906-20 5.488281-12.199219-7.199219-27.800781-7.199219-40 0-12.199219-7.199219-27.800781-7.199219-40 0-6.105469-3.609375-12.910156-5.488281-20-5.488281-5.695312 0-11.089844 1.230469-16 3.390625v-131.390625zm146.609375 49.121094v6.878906c0 4.40625-3.59375 8-8 8s-8-3.59375-8-8v-8l-6.792969-48h8.753907zm-38.9375-49.121094 6.9375 48.566406v7.433594c0 4.40625-3.59375 8-8 8s-8-3.59375-8-8v-56zm-25.0625 48v8c0 4.40625-3.59375 8-8 8s-8-3.59375-8-8v-7.433594l6.9375-48.566406h9.0625zm-31.921875-1.136719-.007813 1.136719h-.070312v8c0 4.40625-3.59375 8-8 8s-8-3.59375-8-8v-6.878906l14.03125-49.121094h8.746094zm-31.765625-1.0625-.074219 2.199219h-.238281v8c0 4.40625-3.59375 8-8 8s-8-3.59375-8-8v-6.878906l14.03125-49.121094h15.359375zm-160.3125 98.199219c5.398438 0 10.574219 1.871094 14.976562 5.425781l5.023438 4.0625 5.023438-4.0625c8.792968-7.105469 21.160156-7.105469 29.945312 0l5.023438 4.0625 5.023437-4.0625c8.792969-7.105469 21.160156-7.105469 29.945313 0l5.023437 4.0625 5.023437-4.0625c4.417969-3.554687 9.59375-5.425781 14.992188-5.425781 10.414062 0 19.214844 6.710938 22.527344 16h-165.054688c3.3125-9.289062 12.113282-16 22.527344-16zm-40 32h184v16h-184zm304 16h-64v-80h64zm16 0v-96h-96v96h-24v-113.472656c2.992188-1.0625 5.6875-2.679688 8-4.765625 4.257812 3.839843 9.832031 6.238281 16 6.238281s11.742188-2.40625 16-6.238281c4.257812 3.839843 9.832031 6.238281 16 6.238281s11.742188-2.40625 16-6.238281c4.257812 3.839843 9.832031 6.238281 16 6.238281s11.742188-2.40625 16-6.238281c4.257812 3.839843 9.832031 6.238281 16 6.238281s11.742188-2.40625 16-6.238281c2.3125 2.078125 5.007812 3.703125 8 4.765625v113.472656zm40-142.878906v6.878906c0 4.40625-3.59375 8-8 8s-8-3.59375-8-8v-8l-13.390625-48h15.359375zm-174.03125-65.121094h-177.96875v-16h352v16zm158.03125-32h-320v-120h90.824219c13.855469 23.871094 39.640625 40 69.175781 40s55.320312-16.128906 69.175781-40h90.824219zm0 0"/><path d="m336 224v-64h-64v64zm-48-48h32v32h-32zm0 0"/><path d="m56 224h64v-64h-64zm16-48h32v32h-32zm0 0"/><path d="m112 400c26.472656 0 48-21.527344 48-48s-21.527344-48-48-48-48 21.527344-48 48 21.527344 48 48 48zm-30.863281-40h22.863281v22.863281c-11.191406-2.910156-19.953125-11.671875-22.863281-22.863281zm38.863281 22.863281v-22.863281h22.863281c-2.910156 11.191406-11.671875 19.953125-22.863281 22.863281zm22.863281-38.863281h-22.863281v-22.863281c11.191406 2.910156 19.953125 11.671875 22.863281 22.863281zm-38.863281-22.863281v22.863281h-22.863281c2.910156-11.191406 11.671875-19.953125 22.863281-22.863281zm0 0"/><path d="m272 432h16v16h-16zm0 0"/><path d="m200 128c22.054688 0 40-14.351562 40-32s-17.945312-32-40-32-40 14.351562-40 32 17.945312 32 40 32zm0-48c13.007812 0 24 7.328125 24 16s-10.992188 16-24 16-24-7.328125-24-16 10.992188-16 24-16zm0 0"/><path d="m208 40c0 4.417969-3.582031 8-8 8s-8-3.582031-8-8 3.582031-8 8-8 8 3.582031 8 8zm0 0"/><path d="m173.65625 61.65625c3.128906-3.128906 3.128906-8.191406 0-11.3125-3.128906-3.128906-8.191406-3.128906-11.3125 0-3.128906 3.128906-3.128906 8.191406 0 11.3125 3.121094 3.128906 8.191406 3.128906 11.3125 0zm0 0"/><path d="m237.65625 61.65625c3.128906-3.128906 3.128906-8.191406 0-11.3125-3.128906-3.128906-8.191406-3.128906-11.3125 0-3.128906 3.128906-3.128906 8.191406 0 11.3125 3.121094 3.128906 8.191406 3.128906 11.3125 0zm0 0"/></svg>