<svg height="480pt" viewBox="0 0 480.00271 480" width="480pt" xmlns="http://www.w3.org/2000/svg"><path d="m286.625 19.3125c-25.75-25.75-67.496094-25.75-93.246094 0l-186.066406 186.066406c-9.75 9.75-9.75 25.558594 0 35.3125 9.753906 9.75 25.5625 9.75 35.3125 0l13.375-13.378906v244.6875c0 4.421875 3.582031 8 8 8h352c4.417969 0 8-3.578125 8-8v-244.6875l13.378906 13.378906c9.75 9.75 25.558594 9.75 35.308594 0 9.753906-9.753906 9.753906-25.5625 0-35.3125zm121.375 444.6875h-336v-252.6875l160-160c4.484375-4.261719 11.519531-4.261719 16 0l160 160zm47.035156-232c-2.378906-.003906-4.660156-.945312-6.347656-2.621094l-189.375-189.378906c-10.664062-10.664062-27.957031-10.664062-38.625 0l-189.375 189.378906c-3.503906 3.503906-9.183594 3.503906-12.6875 0s-3.503906-9.183594 0-12.6875l186.0625-186.066406c19.503906-19.5 51.121094-19.5 70.625 0l186.066406 186.066406c2.566406 2.5625 3.332032 6.421875 1.945313 9.773438-1.390625 3.355468-4.660157 5.539062-8.289063 5.535156zm0 0"/><path d="m307.898438 336.136719c-10-38.078125-37.234376-64.136719-67.898438-64.136719s-57.894531 26.058594-67.894531 64.136719c-28.070313 1.914062-50.363281 24.359375-52.085938 52.441406-1.722656 28.085937 17.660157 53.085937 45.285157 58.414063 3.527343.667968 7.109374 1.007812 10.695312 1.007812 3.65625.003906 7.304688-.355469 10.890625-1.070312 11.640625-2.601563 23.507813-4.074219 35.429687-4.390626h35.378907c11.921875.316407 23.789062 1.789063 35.429687 4.390626 20.457032 4.066406 41.480469-3.570313 54.554688-19.824219 13.074218-16.253907 16.03125-38.425781 7.675781-57.539063-8.359375-19.109375-26.644531-31.992187-47.453125-33.429687zm35.832031 60.5625c-2.03125 17.25-14.957031 31.21875-32 34.574219-5.117188.992187-10.375.992187-15.488281 0-12.667969-2.824219-25.578126-4.398438-38.554688-4.703126h-35.375c-12.972656.304688-25.886719 1.878907-38.550781 4.703126-5.117188.992187-10.375.992187-15.488281 0-20.261719-3.917969-34.21875-22.613282-32.214844-43.152344 2-20.542969 19.304687-36.1875 39.941406-36.121094.410156 0 .800781 0 1.984375.113281 3.960937.183594 7.472656-2.523437 8.296875-6.398437 6.96875-33.96875 29.054688-57.714844 53.71875-57.714844s46.753906 23.746094 53.722656 57.738281c1.21875 3.9375 4.960938 6.546875 9.078125 6.328125.390625 0 .800781-.066406 1.199219-.066406 11.429688 0 22.3125 4.886719 29.902344 13.429688 7.59375 8.539062 11.167968 19.917968 9.828125 31.269531zm0 0"/><path d="m172.722656 247.617188c6.558594 5.023437 14.5625 7.800781 22.824219 7.921874 2.996094 0 5.980469-.394531 8.878906-1.167968 21.304688-5.714844 33.0625-31.160156 26.207031-56.722656-2.957031-11.660157-9.777343-21.976563-19.351562-29.261719-8.957031-7.027344-20.660156-9.519531-31.703125-6.753907-21.304687 5.714844-33.066406 31.160157-26.207031 56.722657 2.953125 11.660156 9.777344 21.976562 19.351562 29.261719zm11-70.527344c1.519532-.40625 3.089844-.609375 4.664063-.609375 4.867187.128906 9.570312 1.808593 13.414062 4.800781 6.652344 5.132812 11.375 12.359375 13.402344 20.511719 4.574219 17.039062-2.113281 33.695312-14.898437 37.121093-6.347657 1.460938-13.015626-.078124-18.078126-4.175781-6.664062-5.132812-11.394531-12.367187-13.425781-20.527343-4.550781-17.042969 2.136719-33.695313 14.921875-37.121094zm0 0"/><path d="m275.578125 254.402344c2.894531.777344 5.882813 1.167968 8.878906 1.167968 8.261719-.125 16.261719-2.898437 22.824219-7.921874 9.574219-7.285157 16.394531-17.601563 19.351562-29.261719 6.855469-25.5625-4.902343-51.007813-26.207031-56.722657-11.042969-2.773437-22.75-.28125-31.703125 6.753907-9.574218 7.285156-16.398437 17.601562-19.351562 29.265625-6.859375 25.519531 4.902344 50.972656 26.207031 56.71875zm-10.777344-52.609375c2.015625-8.15625 6.730469-15.390625 13.375-20.527344 3.847657-2.992187 8.546875-4.671875 13.417969-4.800781 1.574219 0 3.140625.203125 4.664062.609375 12.800782 3.421875 19.472657 20.078125 14.894532 37.121093-2.015625 8.152344-6.730469 15.386719-13.375 20.527344-5.066406 4.09375-11.730469 5.632813-18.078125 4.175782-12.761719-3.410157-19.449219-20.066407-14.898438-37.105469zm0 0"/><path d="m317.363281 260c-6.152343 10.347656-8.625 22.472656-7.011719 34.402344 1.359376 11.308594 7.875 21.351562 17.648438 27.199218 5.273438 3.023438 11.253906 4.597657 17.328125 4.558594 17.414063-.84375 33.105469-10.777344 41.3125-26.160156 6.152344-10.34375 8.621094-22.46875 7.007813-34.398438-1.355469-11.308593-7.871094-21.351562-17.648438-27.199218-19.109375-10.992188-45.40625-1.328125-58.636719 21.597656zm41.101563-10.191406c3.34375-.03125 6.632812.824218 9.535156 2.480468 5.519531 3.445313 9.148438 9.242188 9.832031 15.710938 1.074219 8.34375-.707031 16.800781-5.046875 24-8.800781 15.273438-25.335937 22.328125-36.800781 15.714844-5.511719-3.449219-9.132813-9.246094-9.816406-15.714844-1.070313-8.339844.707031-16.796875 5.050781-24 5.316406-10.375 15.625-17.257812 27.246094-18.191406zm0 0"/><path d="m152 321.601562c9.777344-5.847656 16.292969-15.890624 17.648438-27.199218 1.613281-11.929688-.855469-24.054688-7.007813-34.402344-13.238281-22.917969-39.535156-32.589844-58.640625-21.597656-9.773438 5.847656-16.289062 15.890625-17.648438 27.199218-1.613281 11.929688.859376 24.054688 7.011719 34.398438 8.214844 15.371094 23.902344 25.292969 41.308594 26.128906 6.074219.046875 12.054687-1.515625 17.328125-4.527344zm-44.796875-29.601562c-4.34375-7.199219-6.121094-15.65625-5.050781-24 .691406-6.472656 4.324218-12.265625 9.847656-15.710938 2.902344-1.65625 6.195312-2.511718 9.539062-2.480468 11.625.929687 21.941407 7.8125 27.261719 18.191406 4.339844 7.203125 6.121094 15.660156 5.046875 24-.6875 6.476562-4.320312 12.269531-9.847656 15.714844-11.46875 6.613281-28-.441406-36.796875-15.714844zm0 0"/></svg>