<?xml version="1.0" encoding="iso-8859-1"?>
<!-- Generator: Adobe Illustrator 19.0.0, SVG Export Plug-In . SVG Version: 6.00 Build 0)  -->
<svg version="1.1" id="Capa_1" xmlns="http://www.w3.org/2000/svg" xmlns:xlink="http://www.w3.org/1999/xlink" x="0px" y="0px"
	 viewBox="0 0 407.793 407.793" style="enable-background:new 0 0 407.793 407.793;" xml:space="preserve">
<g>
	<g>
		<path d="M407.09,219.454c-4.418-25.242-28.463-42.123-53.705-37.705c-19.256,3.371-34.335,18.449-37.705,37.705H261.6
			c-32.342,0-58.56,26.218-58.56,58.56v65.52c1.019,23.483-17.192,43.346-40.675,44.365S119.019,370.707,118,347.223
			c-0.053-1.229-0.053-2.46,0-3.689v-93.76c56.96-5.28,102.08-66.32,102.08-140.8v-70.88c0-4.418-3.582-8-8-8H179.6v-18.56
			c0-4.418-3.582-8-8-8s-8,3.582-8,8v53.04c0,4.418,3.582,8,8,8s8-3.582,8-8v-18.48h24.56v62.96c0,69.12-42.24,125.28-94.08,125.28
			c-51.84,0-94.08-56-94.08-125.28v-62.96h24v18.48c0,4.418,3.582,8,8,8s8-3.582,8-8v-53.04c0-4.418-3.582-8-8-8s-8,3.582-8,8v18.56
			H8c-4.418,0-8,3.582-8,8v70.96c0,74.4,45.12,135.44,102.08,140.72v93.76c-1.195,32.32,24.036,59.489,56.356,60.684
			s59.489-24.036,60.684-56.356c0.053-1.442,0.053-2.886,0-4.328v-65.52c0-23.505,19.055-42.56,42.56-42.56h54
			c4.418,25.242,28.463,42.123,53.705,37.705S411.509,244.696,407.09,219.454z M361.28,257.854c-16.789,0-30.4-13.611-30.4-30.4
			c0.044-16.771,13.629-30.356,30.4-30.4c16.789,0,30.4,13.611,30.4,30.4C391.68,244.243,378.07,257.854,361.28,257.854z"/>
	</g>
</g>
<g>
	<g>
		<circle cx="361.28" cy="227.454" r="14.88"/>
	</g>
</g>
<g>
</g>
<g>
</g>
<g>
</g>
<g>
</g>
<g>
</g>
<g>
</g>
<g>
</g>
<g>
</g>
<g>
</g>
<g>
</g>
<g>
</g>
<g>
</g>
<g>
</g>
<g>
</g>
<g>
</g>
</svg>
