<?xml version="1.0" encoding="iso-8859-1"?>
<!-- Generator: Adobe Illustrator 19.0.0, SVG Export Plug-In . SVG Version: 6.00 Build 0)  -->
<svg version="1.1" id="Capa_1" xmlns="http://www.w3.org/2000/svg" xmlns:xlink="http://www.w3.org/1999/xlink" x="0px" y="0px"
	 viewBox="0 0 512.001 512.001" style="enable-background:new 0 0 512.001 512.001;" xml:space="preserve">
<g>
	<g>
		<path d="M511.884,170.188l-13.506-87.788c-2.129-13.838-9.154-26.479-19.78-35.596c-10.626-9.117-24.189-14.137-38.19-14.137
			H71.593c-14.001,0-27.564,5.021-38.19,14.137c-10.626,9.116-17.651,21.758-19.78,35.596L0.116,170.188
			c-0.082,0.53-0.12,1.067-0.116,1.604c0.174,20.989,11.757,39.338,28.774,49.15v248.393c0,5.523,4.477,10,10,10h434.453
			c5.523,0,10-4.477,10-10V220.941c17.018-9.813,28.6-28.162,28.774-49.15C512.004,171.255,511.966,170.719,511.884,170.188z
			 M315.157,52.667h29.159c0,0.01-0.002,0.021-0.002,0.031v86.564c0,5.523,4.477,10,10,10s10-4.477,10-10V52.699
			c0-0.01-0.002-0.021-0.002-0.031h29.159v114.354h0.002v2.344c0,21.591-17.566,39.157-39.158,39.157
			c-14.17,0-26.605-7.565-33.481-18.868c-0.327-0.538-0.642-1.085-0.944-1.64c-3.018-5.548-4.733-11.902-4.733-18.65V52.667z
			 M216.842,52.667h78.314v116.698h0.001c0,21.592-17.566,39.158-39.158,39.158s-39.158-17.566-39.158-39.157V52.667z
			 M118.528,167.022V52.667h28.704c0,0.01-0.002,0.021-0.002,0.031v86.564c0,5.523,4.477,10,10,10s10-4.477,10-10V52.699
			c0-0.01-0.001-0.021-0.002-0.031h29.614v116.698h0.002c0,21.591-17.566,39.157-39.158,39.157
			c-21.592,0-39.158-17.566-39.158-39.157V167.022z M20.013,172.384L33.39,85.441c2.922-18.991,18.989-32.775,38.203-32.775h26.937
			v114.354c0,3.576-0.455,7.047-1.309,10.36c-4.613,17.888-20.884,31.141-40.193,31.141c-0.255,0-0.507-0.014-0.761-0.019
			C36.616,208.098,20.575,192.124,20.013,172.384z M218.206,459.334H96.256V272.949h121.95V459.334z M463.227,459.334H238.206
			V272.949h157.76c5.523,0,10-4.477,10-10s-4.477-10-10-10H86.256c-5.523,0-10,4.477-10,10v196.385H48.774V227.928
			c0.803,0.117,1.611,0.211,2.421,0.293c0.07,0.007,0.14,0.012,0.209,0.019c0.783,0.077,1.569,0.136,2.358,0.18
			c0.215,0.012,0.43,0.025,0.645,0.035c0.849,0.038,1.701,0.064,2.556,0.065c0.022,0,0.043,0.002,0.064,0.002
			c0.017,0,0.034-0.001,0.051-0.001c0.922-0.001,1.838-0.029,2.751-0.07c0.212-0.01,0.425-0.019,0.636-0.03
			c0.9-0.05,1.795-0.116,2.683-0.205c0.167-0.017,0.333-0.038,0.5-0.056c0.803-0.086,1.601-0.188,2.395-0.305
			c0.162-0.024,0.325-0.045,0.487-0.07c0.873-0.136,1.74-0.293,2.601-0.466c0.208-0.042,0.415-0.086,0.622-0.129
			c0.864-0.183,1.723-0.377,2.573-0.595c0.047-0.012,0.092-0.025,0.139-0.037c0.837-0.217,1.664-0.456,2.487-0.708
			c0.201-0.061,0.402-0.122,0.603-0.186c0.821-0.26,1.635-0.534,2.44-0.827c0.164-0.059,0.325-0.123,0.488-0.184
			c0.719-0.269,1.431-0.55,2.137-0.844c0.154-0.064,0.31-0.126,0.463-0.191c0.784-0.335,1.558-0.687,2.326-1.053
			c0.192-0.092,0.383-0.185,0.574-0.279c0.77-0.377,1.535-0.765,2.287-1.173c0.052-0.028,0.103-0.058,0.155-0.086
			c0.729-0.398,1.446-0.815,2.157-1.241c0.181-0.109,0.362-0.217,0.541-0.327c0.717-0.44,1.426-0.893,2.123-1.362
			c0.147-0.099,0.291-0.201,0.437-0.301c0.621-0.425,1.234-0.861,1.838-1.308c0.132-0.098,0.266-0.193,0.397-0.292
			c0.673-0.506,1.334-1.028,1.985-1.561c0.162-0.133,0.323-0.267,0.484-0.402c0.66-0.551,1.312-1.11,1.947-1.687
			c0.037-0.034,0.073-0.069,0.11-0.103c0.611-0.558,1.207-1.131,1.795-1.712c0.145-0.143,0.289-0.285,0.433-0.43
			c0.594-0.599,1.177-1.208,1.746-1.831c0.113-0.123,0.223-0.249,0.334-0.374c0.513-0.57,1.015-1.149,1.506-1.738
			c0.096-0.116,0.195-0.229,0.29-0.345c0.54-0.656,1.063-1.326,1.576-2.004c0.121-0.16,0.239-0.321,0.359-0.482
			c0.513-0.693,1.017-1.393,1.501-2.107c0.158,0.244,0.323,0.483,0.485,0.724c0.1,0.15,0.199,0.301,0.301,0.45
			c0.466,0.684,0.945,1.358,1.438,2.021c0.092,0.123,0.187,0.244,0.28,0.367c0.449,0.593,0.908,1.177,1.377,1.752
			c0.093,0.114,0.184,0.23,0.278,0.343c0.528,0.636,1.07,1.26,1.623,1.873c0.122,0.135,0.247,0.269,0.37,0.404
			c0.529,0.576,1.067,1.143,1.618,1.697c0.052,0.053,0.103,0.107,0.156,0.16c0.591,0.59,1.197,1.163,1.812,1.728
			c0.141,0.13,0.283,0.259,0.426,0.387c0.621,0.559,1.251,1.11,1.896,1.643c0.05,0.041,0.101,0.08,0.151,0.121
			c0.61,0.501,1.232,0.987,1.861,1.463c0.149,0.113,0.297,0.226,0.446,0.337c0.664,0.493,1.337,0.973,2.022,1.439
			c0.119,0.081,0.24,0.158,0.36,0.238c0.618,0.413,1.244,0.815,1.877,1.205c0.137,0.084,0.272,0.171,0.41,0.254
			c0.708,0.428,1.426,0.841,2.153,1.239c0.16,0.087,0.32,0.172,0.481,0.258c0.677,0.363,1.36,0.715,2.052,1.052
			c0.091,0.044,0.18,0.091,0.271,0.135c0.754,0.363,1.519,0.706,2.29,1.037c0.184,0.079,0.369,0.157,0.554,0.234
			c0.782,0.326,1.569,0.642,2.367,0.935c0.042,0.015,0.085,0.029,0.128,0.045c0.767,0.28,1.544,0.54,2.325,0.788
			c0.19,0.061,0.38,0.121,0.572,0.18c0.805,0.247,1.615,0.48,2.434,0.693c0.139,0.036,0.28,0.068,0.42,0.103
			c0.732,0.185,1.47,0.355,2.213,0.512c0.178,0.038,0.356,0.078,0.535,0.114c0.83,0.167,1.667,0.317,2.509,0.449
			c0.19,0.03,0.381,0.056,0.572,0.084c0.762,0.112,1.527,0.21,2.298,0.293c0.136,0.014,0.271,0.033,0.408,0.046
			c0.86,0.086,1.727,0.149,2.597,0.198c0.214,0.012,0.429,0.022,0.644,0.031c0.875,0.039,1.753,0.066,2.637,0.067
			c0.018,0,0.035,0.001,0.053,0.001c0.017,0,0.034-0.001,0.052-0.001c0.886-0.001,1.765-0.028,2.642-0.067
			c0.207-0.009,0.413-0.018,0.619-0.03c0.866-0.048,1.728-0.112,2.585-0.197c0.156-0.016,0.312-0.035,0.468-0.052
			c0.771-0.083,1.538-0.181,2.301-0.293c0.163-0.024,0.326-0.045,0.489-0.07c0.843-0.132,1.68-0.283,2.511-0.45
			c0.191-0.038,0.381-0.079,0.571-0.12c0.815-0.172,1.625-0.356,2.428-0.562c0.043-0.011,0.086-0.02,0.129-0.031
			c0.834-0.215,1.659-0.455,2.478-0.706c0.185-0.056,0.369-0.113,0.553-0.171c0.804-0.255,1.601-0.523,2.39-0.81
			c0.122-0.044,0.242-0.093,0.363-0.138c0.719-0.268,1.431-0.549,2.136-0.844c0.146-0.061,0.294-0.12,0.44-0.182
			c0.767-0.328,1.526-0.672,2.276-1.031c0.16-0.076,0.318-0.155,0.476-0.233c0.724-0.354,1.442-0.72,2.149-1.102
			c0.051-0.028,0.103-0.053,0.154-0.081c0.741-0.404,1.47-0.828,2.192-1.262c0.159-0.095,0.317-0.191,0.475-0.288
			c0.712-0.437,1.415-0.886,2.107-1.352c0.086-0.058,0.17-0.118,0.255-0.176c0.638-0.435,1.266-0.883,1.886-1.342
			c0.128-0.095,0.257-0.188,0.384-0.283c0.66-0.497,1.31-1.008,1.948-1.532c0.13-0.106,0.257-0.215,0.386-0.322
			c0.604-0.504,1.199-1.017,1.782-1.544c0.057-0.051,0.115-0.101,0.172-0.152c0.618-0.563,1.221-1.143,1.815-1.731
			c0.13-0.129,0.26-0.258,0.389-0.389c0.587-0.592,1.165-1.194,1.727-1.811c0.059-0.064,0.115-0.131,0.174-0.196
			c0.521-0.577,1.029-1.165,1.527-1.762c0.107-0.129,0.216-0.256,0.323-0.386c0.522-0.637,1.032-1.284,1.527-1.943
			c0.1-0.132,0.197-0.266,0.295-0.4c0.457-0.618,0.904-1.243,1.337-1.879c0.058-0.084,0.117-0.167,0.174-0.251
			c0.024-0.036,0.05-0.071,0.074-0.107c0.024,0.036,0.05,0.071,0.074,0.107c0.057,0.085,0.117,0.167,0.174,0.251
			c0.434,0.636,0.88,1.262,1.337,1.879c0.098,0.133,0.195,0.267,0.295,0.4c0.496,0.658,1.005,1.306,1.527,1.943
			c0.106,0.13,0.215,0.257,0.323,0.386c0.498,0.597,1.006,1.186,1.527,1.762c0.058,0.065,0.115,0.131,0.174,0.196
			c0.562,0.617,1.14,1.219,1.727,1.811c0.129,0.13,0.258,0.26,0.389,0.389c0.594,0.588,1.197,1.168,1.815,1.731
			c0.057,0.052,0.115,0.101,0.172,0.152c0.583,0.527,1.178,1.04,1.782,1.544c0.129,0.107,0.256,0.216,0.386,0.322
			c0.638,0.524,1.288,1.035,1.948,1.532c0.127,0.096,0.256,0.188,0.384,0.283c0.62,0.459,1.248,0.907,1.886,1.342
			c0.085,0.058,0.169,0.119,0.255,0.176c0.691,0.466,1.395,0.915,2.107,1.352c0.158,0.097,0.317,0.193,0.475,0.288
			c0.722,0.434,1.451,0.858,2.192,1.262c0.051,0.028,0.103,0.053,0.154,0.081c0.707,0.383,1.425,0.748,2.149,1.102
			c0.159,0.078,0.317,0.156,0.476,0.233c0.751,0.359,1.509,0.703,2.276,1.031c0.146,0.062,0.293,0.121,0.44,0.182
			c0.705,0.294,1.417,0.576,2.136,0.844c0.121,0.045,0.241,0.093,0.363,0.138c0.789,0.288,1.586,0.556,2.39,0.81
			c0.184,0.058,0.368,0.115,0.553,0.171c0.82,0.251,1.644,0.49,2.478,0.706c0.043,0.011,0.086,0.02,0.129,0.031
			c0.802,0.205,1.613,0.39,2.428,0.562c0.19,0.04,0.38,0.081,0.571,0.12c0.831,0.167,1.668,0.318,2.511,0.45
			c0.162,0.025,0.326,0.046,0.489,0.07c0.762,0.112,1.529,0.21,2.301,0.293c0.156,0.017,0.311,0.037,0.468,0.052
			c0.856,0.085,1.718,0.149,2.584,0.197c0.206,0.012,0.413,0.02,0.619,0.03c0.876,0.04,1.756,0.066,2.642,0.067
			c0.017,0,0.034,0.001,0.052,0.001c0.018,0,0.034-0.001,0.052-0.001c0.886-0.001,1.765-0.028,2.642-0.067
			c0.207-0.009,0.413-0.018,0.619-0.03c0.866-0.048,1.728-0.112,2.584-0.197c0.157-0.016,0.312-0.035,0.468-0.052
			c0.771-0.083,1.538-0.181,2.301-0.293c0.163-0.024,0.326-0.045,0.489-0.07c0.843-0.132,1.679-0.283,2.509-0.449
			c0.192-0.039,0.383-0.08,0.574-0.12c0.813-0.172,1.621-0.355,2.421-0.56c0.045-0.012,0.091-0.021,0.136-0.033
			c0.833-0.215,1.656-0.454,2.475-0.704c0.186-0.057,0.372-0.114,0.557-0.173c0.803-0.254,1.6-0.522,2.388-0.809
			c0.122-0.045,0.243-0.093,0.365-0.138c0.717-0.267,1.428-0.548,2.132-0.842c0.148-0.062,0.297-0.121,0.445-0.184
			c0.766-0.327,1.524-0.671,2.273-1.029c0.161-0.077,0.32-0.156,0.48-0.235c0.722-0.353,1.437-0.717,2.142-1.099
			c0.053-0.029,0.107-0.055,0.16-0.084c0.74-0.403,1.468-0.826,2.188-1.26c0.161-0.097,0.321-0.194,0.481-0.292
			c0.71-0.436,1.412-0.884,2.101-1.349c0.089-0.06,0.175-0.122,0.264-0.183c0.634-0.432,1.259-0.878,1.875-1.334
			c0.13-0.096,0.262-0.191,0.391-0.289c0.658-0.495,1.305-1.005,1.942-1.527c0.133-0.109,0.264-0.22,0.396-0.33
			c0.598-0.499,1.187-1.007,1.765-1.529c0.062-0.056,0.125-0.11,0.187-0.166c0.615-0.56,1.215-1.137,1.806-1.722
			c0.134-0.133,0.267-0.266,0.4-0.4c0.584-0.589,1.158-1.188,1.717-1.801c0.064-0.07,0.125-0.142,0.189-0.213
			c0.514-0.57,1.016-1.151,1.508-1.74c0.112-0.134,0.225-0.266,0.335-0.401c0.519-0.633,1.025-1.276,1.518-1.93
			c0.104-0.138,0.206-0.279,0.309-0.418c0.45-0.608,0.89-1.224,1.316-1.85c0.063-0.092,0.128-0.183,0.191-0.275
			c0.023-0.034,0.047-0.067,0.07-0.101c0.023,0.035,0.048,0.068,0.071,0.103c0.061,0.091,0.125,0.179,0.186,0.269
			c0.429,0.628,0.87,1.247,1.322,1.858c0.102,0.138,0.202,0.276,0.305,0.413c0.493,0.655,1,1.299,1.52,1.933
			c0.11,0.134,0.222,0.266,0.333,0.398c0.493,0.591,0.996,1.174,1.512,1.745c0.063,0.069,0.123,0.14,0.186,0.209
			c0.559,0.614,1.135,1.213,1.719,1.803c0.132,0.133,0.264,0.266,0.397,0.397c0.592,0.586,1.192,1.163,1.808,1.724
			c0.06,0.055,0.122,0.108,0.183,0.162c0.579,0.523,1.17,1.033,1.77,1.534c0.131,0.109,0.261,0.219,0.392,0.328
			c0.637,0.523,1.285,1.032,1.944,1.529c0.128,0.096,0.259,0.19,0.388,0.286c0.617,0.457,1.242,0.903,1.877,1.336
			c0.088,0.06,0.175,0.123,0.263,0.182c0.69,0.465,1.393,0.913,2.103,1.35c0.159,0.097,0.318,0.194,0.478,0.29
			c0.721,0.434,1.449,0.857,2.19,1.261c0.053,0.029,0.107,0.055,0.159,0.084c0.705,0.381,1.42,0.745,2.142,1.099
			c0.16,0.078,0.32,0.158,0.481,0.235c0.749,0.358,1.507,0.702,2.273,1.029c0.147,0.063,0.297,0.122,0.445,0.184
			c0.704,0.294,1.414,0.575,2.132,0.842c0.122,0.045,0.242,0.094,0.365,0.138c0.788,0.287,1.585,0.555,2.388,0.809
			c0.185,0.059,0.371,0.116,0.557,0.173c0.818,0.25,1.642,0.489,2.475,0.704c0.045,0.012,0.091,0.021,0.136,0.033
			c0.8,0.205,1.608,0.388,2.421,0.56c0.191,0.04,0.382,0.081,0.574,0.12c0.831,0.167,1.667,0.318,2.51,0.449
			c0.162,0.025,0.326,0.046,0.489,0.07c0.762,0.112,1.529,0.21,2.301,0.293c0.156,0.017,0.311,0.037,0.468,0.052
			c0.856,0.085,1.718,0.149,2.584,0.197c0.206,0.012,0.413,0.02,0.619,0.03c0.876,0.04,1.756,0.066,2.642,0.067
			c0.017,0,0.034,0.001,0.052,0.001s0.035-0.001,0.053-0.001c0.884-0.001,1.762-0.028,2.637-0.067
			c0.215-0.01,0.43-0.019,0.644-0.031c0.87-0.049,1.737-0.112,2.597-0.198c0.137-0.014,0.272-0.032,0.408-0.046
			c0.771-0.083,1.536-0.181,2.298-0.293c0.191-0.028,0.382-0.054,0.572-0.084c0.842-0.132,1.679-0.282,2.509-0.449
			c0.179-0.036,0.356-0.076,0.535-0.114c0.743-0.157,1.481-0.327,2.213-0.512c0.14-0.035,0.281-0.067,0.42-0.103
			c0.819-0.213,1.629-0.446,2.434-0.693c0.191-0.059,0.381-0.12,0.572-0.18c0.782-0.249,1.558-0.508,2.325-0.788
			c0.042-0.015,0.085-0.029,0.128-0.045c0.798-0.293,1.586-0.609,2.367-0.935c0.185-0.077,0.37-0.155,0.554-0.234
			c0.771-0.331,1.536-0.674,2.29-1.037c0.091-0.044,0.18-0.091,0.271-0.135c0.692-0.337,1.375-0.689,2.052-1.052
			c0.16-0.086,0.321-0.171,0.481-0.258c0.727-0.399,1.445-0.811,2.153-1.239c0.137-0.083,0.273-0.169,0.41-0.254
			c0.634-0.39,1.26-0.792,1.877-1.205c0.12-0.08,0.241-0.158,0.36-0.238c0.685-0.465,1.358-0.946,2.022-1.439
			c0.15-0.111,0.298-0.224,0.446-0.337c0.63-0.477,1.252-0.963,1.861-1.463c0.05-0.041,0.101-0.08,0.151-0.121
			c0.645-0.533,1.275-1.083,1.896-1.643c0.143-0.128,0.285-0.257,0.426-0.387c0.615-0.564,1.221-1.138,1.812-1.728
			c0.053-0.053,0.103-0.107,0.156-0.16c0.551-0.554,1.089-1.121,1.618-1.697c0.124-0.135,0.248-0.268,0.37-0.404
			c0.553-0.614,1.095-1.237,1.623-1.873c0.094-0.113,0.185-0.229,0.278-0.343c0.47-0.575,0.929-1.159,1.378-1.752
			c0.093-0.123,0.188-0.244,0.28-0.367c0.493-0.663,0.972-1.338,1.439-2.021c0.102-0.149,0.201-0.3,0.301-0.45
			c0.161-0.242,0.327-0.48,0.485-0.724c0.484,0.715,0.988,1.415,1.501,2.107c0.119,0.161,0.238,0.322,0.359,0.482
			c0.512,0.679,1.036,1.348,1.576,2.004c0.096,0.116,0.194,0.229,0.29,0.345c0.491,0.589,0.994,1.168,1.506,1.738
			c0.112,0.124,0.222,0.251,0.334,0.374c0.569,0.623,1.152,1.232,1.746,1.831c0.143,0.144,0.288,0.287,0.433,0.43
			c0.588,0.581,1.185,1.154,1.796,1.712c0.037,0.034,0.073,0.069,0.11,0.103c0.636,0.577,1.288,1.137,1.947,1.687
			c0.161,0.134,0.322,0.269,0.484,0.402c0.651,0.533,1.312,1.055,1.985,1.561c0.131,0.099,0.265,0.194,0.397,0.292
			c0.604,0.447,1.217,0.883,1.838,1.308c0.146,0.1,0.29,0.202,0.437,0.301c0.697,0.469,1.406,0.922,2.123,1.362
			c0.18,0.11,0.36,0.218,0.541,0.327c0.711,0.426,1.428,0.843,2.157,1.241c0.052,0.028,0.103,0.058,0.155,0.086
			c0.752,0.408,1.516,0.796,2.287,1.173c0.191,0.094,0.382,0.187,0.574,0.279c0.767,0.366,1.541,0.718,2.326,1.053
			c0.154,0.066,0.309,0.127,0.463,0.191c0.706,0.294,1.418,0.576,2.137,0.844c0.163,0.061,0.325,0.124,0.488,0.184
			c0.805,0.293,1.619,0.567,2.44,0.827c0.2,0.063,0.401,0.124,0.603,0.186c0.823,0.251,1.65,0.491,2.487,0.708
			c0.046,0.012,0.092,0.025,0.139,0.037c0.85,0.218,1.71,0.413,2.573,0.595c0.207,0.044,0.414,0.088,0.622,0.129
			c0.861,0.173,1.727,0.33,2.6,0.466c0.162,0.025,0.325,0.046,0.487,0.07c0.793,0.117,1.592,0.219,2.395,0.305
			c0.167,0.018,0.333,0.039,0.5,0.056c0.889,0.088,1.784,0.155,2.683,0.205c0.212,0.012,0.424,0.021,0.636,0.03
			c0.913,0.041,1.828,0.069,2.751,0.07c0.017,0,0.034,0.001,0.051,0.001c0.022,0,0.043-0.002,0.065-0.002
			c0.855-0.001,1.707-0.027,2.556-0.065c0.216-0.01,0.43-0.022,0.645-0.035c0.789-0.044,1.575-0.104,2.358-0.18
			c0.07-0.007,0.14-0.012,0.209-0.019c0.806-0.082,1.614-0.176,2.417-0.293V459.334z M455.734,208.503
			c-0.254,0.005-0.506,0.019-0.761,0.019c-19.308,0-35.579-13.254-40.193-31.141c-0.854-3.313-1.309-6.784-1.309-10.36V52.667
			h26.937c19.214,0,35.281,13.784,38.203,32.774l13.376,86.943C491.425,192.126,475.385,208.099,455.734,208.503z"/>
	</g>
</g>
<g>
	<g>
		<path d="M444.028,261.001c-0.13-0.64-0.32-1.27-0.57-1.88c-0.25-0.6-0.56-1.18-0.92-1.72c-0.37-0.55-0.79-1.06-1.25-1.52
			c-0.46-0.46-0.97-0.88-1.52-1.25c-0.54-0.36-1.12-0.67-1.72-0.92c-0.61-0.25-1.23-0.44-1.87-0.57c-1.29-0.26-2.62-0.26-3.91,0
			c-0.64,0.13-1.27,0.32-1.87,0.57c-0.6,0.25-1.19,0.56-1.73,0.92c-0.55,0.37-1.06,0.79-1.52,1.25c-0.46,0.46-0.88,0.97-1.24,1.52
			c-0.36,0.54-0.67,1.12-0.92,1.72c-0.25,0.61-0.44,1.24-0.57,1.88s-0.2,1.3-0.2,1.95c0,0.65,0.07,1.31,0.2,1.95
			c0.131,0.64,0.32,1.27,0.57,1.87c0.25,0.61,0.56,1.19,0.92,1.73c0.36,0.55,0.78,1.06,1.24,1.52c0.46,0.46,0.97,0.88,1.52,1.24
			c0.54,0.36,1.13,0.67,1.73,0.92c0.6,0.25,1.23,0.45,1.87,0.57c0.64,0.13,1.3,0.2,1.95,0.2s1.31-0.07,1.96-0.2
			c0.64-0.12,1.26-0.32,1.87-0.57c0.6-0.25,1.18-0.56,1.72-0.92c0.55-0.36,1.06-0.78,1.52-1.24c0.46-0.46,0.88-0.97,1.25-1.52
			c0.36-0.54,0.67-1.12,0.92-1.73c0.25-0.6,0.44-1.23,0.57-1.87c0.13-0.64,0.19-1.3,0.19-1.95S444.158,261.641,444.028,261.001z"/>
	</g>
</g>
<g>
	<g>
		<path d="M167.032,175.562c-0.13-0.64-0.32-1.26-0.57-1.87c-0.25-0.6-0.56-1.18-0.92-1.72c-0.36-0.55-0.78-1.06-1.24-1.52
			c-0.46-0.47-0.97-0.88-1.52-1.25c-0.54-0.36-1.12-0.67-1.73-0.92c-0.6-0.25-1.23-0.44-1.87-0.57c-1.29-0.26-2.61-0.26-3.9,0
			c-0.64,0.13-1.27,0.32-1.88,0.57c-0.6,0.25-1.18,0.56-1.72,0.92c-0.55,0.37-1.06,0.78-1.52,1.25c-0.46,0.46-0.88,0.97-1.24,1.52
			c-0.37,0.54-0.67,1.12-0.92,1.72c-0.25,0.61-0.45,1.23-0.57,1.87c-0.13,0.65-0.2,1.309-0.2,1.96c0,0.65,0.07,1.31,0.2,1.95
			c0.12,0.64,0.32,1.27,0.57,1.87c0.25,0.6,0.55,1.18,0.92,1.73c0.36,0.54,0.78,1.06,1.24,1.52c1.86,1.86,4.44,2.93,7.07,2.93
			c0.65,0,1.31-0.07,1.95-0.2c0.64-0.13,1.27-0.32,1.87-0.57c0.61-0.25,1.19-0.56,1.73-0.92c0.55-0.36,1.06-0.78,1.52-1.24
			c0.46-0.46,0.88-0.98,1.24-1.52c0.36-0.55,0.67-1.13,0.92-1.73s0.44-1.23,0.57-1.87c0.13-0.64,0.2-1.3,0.2-1.95
			S167.162,176.212,167.032,175.562z"/>
	</g>
</g>
<g>
	<g>
		<path d="M364.12,175.562c-0.131-0.64-0.32-1.27-0.57-1.87c-0.25-0.6-0.56-1.18-0.92-1.73c-0.36-0.54-0.78-1.05-1.24-1.52
			c-2.33-2.32-5.78-3.38-9.03-2.73c-0.64,0.13-1.27,0.32-1.87,0.57c-0.6,0.25-1.18,0.56-1.73,0.92c-0.54,0.37-1.05,0.78-1.51,1.24
			c-0.47,0.47-0.88,0.98-1.25,1.52c-0.36,0.55-0.67,1.13-0.92,1.73c-0.25,0.6-0.44,1.23-0.57,1.87c-0.13,0.65-0.19,1.3-0.19,1.96
			c0,0.65,0.06,1.31,0.19,1.95s0.32,1.27,0.57,1.87s0.56,1.19,0.92,1.73c0.37,0.55,0.78,1.06,1.25,1.52
			c0.46,0.46,0.97,0.88,1.51,1.24c0.55,0.36,1.13,0.67,1.73,0.92c0.6,0.25,1.23,0.44,1.87,0.57c0.65,0.13,1.3,0.2,1.96,0.2
			c2.63,0,5.2-1.07,7.07-2.93c0.46-0.46,0.88-0.97,1.24-1.52c0.36-0.54,0.67-1.13,0.92-1.73s0.44-1.23,0.57-1.87
			c0.13-0.64,0.19-1.3,0.19-1.95C364.31,176.862,364.25,176.212,364.12,175.562z"/>
	</g>
</g>
<g>
	<g>
		<path d="M437.657,294.916H303.851c-5.523,0-10,4.477-10,10v94.357c0,5.523,4.477,10,10,10h133.806c5.523,0,10-4.477,10-10v-94.357
			C447.657,299.393,443.18,294.916,437.657,294.916z M427.657,389.275H313.851v-74.357h113.806V389.275z"/>
	</g>
</g>
<g>
</g>
<g>
</g>
<g>
</g>
<g>
</g>
<g>
</g>
<g>
</g>
<g>
</g>
<g>
</g>
<g>
</g>
<g>
</g>
<g>
</g>
<g>
</g>
<g>
</g>
<g>
</g>
<g>
</g>
</svg>
